#!OML:ASF E:\Mandelcareful walks\Project 1\Capture day 1\Session 1\Subject1.ASF
:FULLY-SPECIFIED
:DEGREES
360
root -17.2746 8.47795 -0.419945 389.052 84.0931 353.389
lowerback 58.5382 -1.91601 -7.21396
upperback 5.64113 -5.82434 -3.35145
thorax -15.0182 -1.43791 2.06193
lowerneck -32.08 6.50298 3.23312
upperneck 14.6184 11.3825 -15.8806
head 11.2297 3.42973 -4.23574
rclavicle -6.36111e-015 3.37934e-015
rhumerus 14.3202 15.3078 -69.7514
rradius 59.7093
rwrist -24.3523
rhand -29.4416 -42.1341
rfingers 7.12502
rthumb -2.77818 -72.0957
lclavicle -6.36111e-015 3.37934e-015
lhumerus 44.6232 12.7632 23.4092
lradius 42.6496
lwrist 27.0915
lhand -41.6973 338.63
lfingers 7.12502
lthumb -14.6035 8.09601
rfemur -34.5641 -29.8095 -4.54333
rtibia 109.927
rfoot -20.0718 -16.2717
rtoes 14.8337
lfemur -57.9968 39.5263 -7.98929
ltibia 129.354
lfoot 25.0962 -0.847755
ltoes 15.6675
361
root -17.3077 8.4807 -0.389994 392.099 83.3582 356.358
lowerback 58.7135 -2.51636 -6.60223
upperback 5.46311 -6.25173 -3.59286
thorax -15.3319 -1.6183 1.73985
lowerneck -32.2503 6.90474 3.245
upperneck 15.2136 12.1088 -16.1857
head 11.597 3.67006 -4.21489
rclavicle -1.90833e-014 3.97569e-016
rhumerus 14.0304 15.5731 -71.0537
rradius 60.9845
rwrist -23.0568
rhand -29.1386 -43.6402
rfingers 7.12502
rthumb -2.4856 -73.6055
lclavicle -1.90833e-014 3.97569e-016
lhumerus 39.7893 11.2561 22.1629
lradius 47.5877
lwrist 27.3136
lhand -42.7017 339.473
lfingers 7.12502
lthumb -15.571 8.86569
rfemur -35.3203 -29.9346 -4.76686
rtibia 110.69
rfoot -20.5638 -15.9736
rtoes 15.0569
lfemur -58.3886 40.1354 -8.57133
ltibia 129.422
lfoot 25.4209 -1.1399
ltoes 15.0358
362
root -17.3311 8.4824 -0.363204 396.031 82.7334 360.121
lowerback 58.5452 -3.06143 -6.08662
upperback 5.38466 -6.60104 -3.64504
thorax -15.4715 -1.78181 1.64182
lowerneck -32.0982 7.27789 3.42833
upperneck 15.6744 12.7801 -16.7587
head 11.899 3.88594 -4.33075
rclavicle -3.97569e-014 -1.41137e-014
rhumerus 14.669 16.2217 -71.1364
rradius 61.6054
rwrist -22.6685
rhand -29.2738 -45.0602
rfingers 7.12502
rthumb -2.61618 -75.0239
lclavicle -3.97569e-014 -1.41137e-014
lhumerus 34.4889 9.76531 21.1791
lradius 53.1601
lwrist 27.5541
lhand -42.8901 340.571
lfingers 7.12502
lthumb -15.7525 9.94954
rfemur -35.851 -30.4466 -5.25414
rtibia 111.309
rfoot -20.9288 -15.4462
rtoes 15.6653
lfemur -59.0324 40.3896 -9.51698
ltibia 129.506
lfoot 24.9785 -1.54332
ltoes 14.9562
363
root -17.3235 8.48069 -0.341622 398.102 81.9278 362.172
lowerback 58.2936 -3.4627 -5.69521
upperback 5.37709 -6.84 -3.65472
thorax -15.5025 -1.90421 1.58969
lowerneck -31.9164 7.58824 3.37691
upperneck 16.3165 13.411 -16.9885
head 12.2154 4.09621 -4.29091
rclavicle 4.45278e-014 -2.80286e-014
rhumerus 15.3567 16.9835 -71.2558
rradius 61.8645
rwrist -21.9433
rhand -29.3877 -45.8686
rfingers 7.12502
rthumb -2.72616 -75.8309
lclavicle 4.45278e-014 -2.80286e-014
lhumerus 28.6525 8.03264 20.6411
lradius 59.1057
lwrist 27.5877
lhand -43.4093 340.948
lfingers 7.12502
lthumb -16.2524 10.287
rfemur -36.0779 -30.4211 -5.76965
rtibia 111.629
rfoot -21.0625 -15.1703
rtoes 16.0522
lfemur -58.7052 40.8852 -9.9584
ltibia 129.446
lfoot 24.4694 -2.22943
ltoes 14.4698
364
root -17.3119 8.48176 -0.320148 399.549 81.1929 363.619
lowerback 58.0511 -3.82989 -5.12895
upperback 5.38183 -6.94011 -3.69149
thorax -15.5443 -1.97747 1.36121
lowerneck -31.8194 7.84534 3.35925
upperneck 17.2595 13.9488 -16.9849
head 12.6329 4.26826 -4.19502
rclavicle 3.02153e-014 6.75868e-015
rhumerus 15.8545 17.4753 -71.3651
rradius 62.0593
rwrist -21.1162
rhand -29.6061 -46.0741
rfingers 7.12502
rthumb -2.93702 -76.0336
lclavicle 3.02153e-014 6.75868e-015
lhumerus 23.25 5.99859 21.0853
lradius 64.5654
lwrist 26.2593
lhand -44.6741 340.393
lfingers 7.12502
lthumb -17.47 9.62752
rfemur -36.3498 -30.2965 -6.18519
rtibia 111.855
rfoot -21.2543 -15.0905
rtoes 16.6048
lfemur -58.2063 41.3217 -10.1791
ltibia 129.363
lfoot 24.8095 -2.31203
ltoes 14.1372
365
root -17.2957 8.48508 -0.298338 402.493 80.6769 366.447
lowerback 57.7383 -4.29714 -4.35695
upperback 5.35862 -7.03752 -3.73428
thorax -15.6356 -2.05674 1.03584
lowerneck -31.2867 8.13798 4.05828
upperneck 17.5997 14.3165 -17.6646
head 12.8527 4.39874 -4.50545
rclavicle 6.04305e-014 -4.69132e-014
rhumerus 16.1489 17.7992 -71.2639
rradius 62.3005
rwrist -20.4792
rhand -30.3163 -45.8469
rfingers 7.12502
rthumb -3.62292 -75.7959
lclavicle 6.04305e-014 -4.69132e-014
lhumerus 18.8378 3.97014 22.9193
lradius 68.8154
lwrist 23.3764
lhand -45.5183 339.284
lfingers 7.12502
lthumb -18.2824 8.44485
rfemur -36.4999 -30.5842 -6.76428
rtibia 111.998
rfoot -21.4963 -15.0216
rtoes 16.6519
lfemur -58.1682 41.2165 -10.7864
ltibia 129.334
lfoot 24.9794 -1.89054
ltoes 14.8033
366
root -17.2878 8.48666 -0.265721 404.047 79.979 367.607
lowerback 57.0888 -4.58283 -3.81308
upperback 5.32529 -7.07113 -3.74146
thorax -15.6807 -2.11597 0.822429
lowerneck -30.5571 8.46548 4.91676
upperneck 17.595 14.6526 -18.4942
head 12.9323 4.54575 -4.90199
rclavicle 4.29375e-014 2.24627e-014
rhumerus 16.3371 18.3231 -71.3415
rradius 62.6421
rwrist -19.6468
rhand -30.5144 -46.0296
rfingers 7.12502
rthumb -3.81423 -75.9752
lclavicle 4.29375e-014 2.24627e-014
lhumerus 14.1971 2.01715 24.3564
lradius 72.7624
lwrist 21.4263
lhand -46.3931 337.686
lfingers 7.12502
lthumb -19.1237 6.7663
rfemur -37.2901 -30.5903 -6.88065
rtibia 112.258
rfoot -21.7653 -15.1639
rtoes 16.1517
lfemur -58.6199 41.595 -11.3645
ltibia 129.423
lfoot 25.2474 -1.56874
ltoes 15.966
367
root -17.2957 8.48445 -0.224657 404.469 79.0345 367.502
lowerback 56.3056 -4.61308 -3.44845
upperback 5.31521 -6.92428 -3.75731
thorax -15.664 -2.10269 0.586115
lowerneck -30.4256 8.69048 5.45816
upperneck 18.2445 14.9613 -18.791
head 13.295 4.6466 -5.06695
rclavicle 7.95139e-015 2.24627e-014
rhumerus 16.4064 18.6619 -71.5749
rradius 63.134
rwrist -18.4887
rhand -30.2671 -46.9149
rfingers 7.12502
rthumb -3.5754 -76.8647
lclavicle 7.95139e-015 2.24627e-014
lhumerus 9.9051 -0.206818 26.2488
lradius 76.2577
lwrist 21.0257
lhand -45.8292 340.117
lfingers 7.12502
lthumb -18.5814 9.24938
rfemur -38.637 -30.2721 -6.72593
rtibia 112.696
rfoot -22.0859 -15.5629
rtoes 15.7678
lfemur -59.2364 42.4845 -11.8509
ltibia 129.616
lfoot 25.9526 -1.36947
ltoes 16.5711
368
root -17.3031 8.47431 -0.184769 406.266 78.0103 368.785
lowerback 55.3264 -4.703 -3.07604
upperback 5.44545 -6.84209 -3.90197
thorax -15.4707 -2.11728 0.22656
lowerneck -30.7511 8.87049 5.82139
upperneck 19.3058 15.2639 -18.7504
head 13.8625 4.72117 -5.08561
rclavicle 2.8625e-014 5.22804e-014
rhumerus 16.472 18.7983 -71.7698
rradius 63.6619
rwrist -17.3422
rhand -30.5739 -47.6181
rfingers 7.12502
rthumb -3.87171 -77.5626
lclavicle 2.8625e-014 5.22804e-014
lhumerus 6.32639 -2.29484 28.653
lradius 78.8981
lwrist 21.2011
lhand -44.1635 342.969
lfingers 7.12502
lthumb -16.9786 12.2465
rfemur -39.8273 -30.2471 -7.0773
rtibia 113.189
rfoot -22.3399 -16.0734
rtoes 15.0792
lfemur -59.8973 43.1127 -12.7779
ltibia 129.832
lfoot 26.5836 -1.33341
ltoes 16.1746
369
root -17.3081 8.46566 -0.139995 407.691 76.9726 369.85
lowerback 54.502 -4.72703 -2.83748
upperback 5.57357 -6.75652 -4.02222
thorax -15.2703 -2.11952 -0.0518874
lowerneck -31.03 9.08354 6.07792
upperneck 20.2868 15.6133 -18.6139
head 14.387 4.82809 -5.03311
rclavicle 4.92986e-014 -5.62561e-014
rhumerus 16.5615 19.0529 -71.9084
rradius 63.928
rwrist -16.4145
rhand -31.4656 -47.6846
rfingers 7.12502
rthumb -4.73269 -77.6117
lclavicle 4.92986e-014 -5.62561e-014
lhumerus 3.06456 -4.95885 30.9263
lradius 81.1259
lwrist 24.9257
lhand -42.6464 346.126
lfingers 7.12502
lthumb -15.5178 15.5234
rfemur -40.745 -30.1225 -7.51248
rtibia 113.638
rfoot -22.5551 -16.3549
rtoes 15.7522
lfemur -60.2937 43.7368 -13.5159
ltibia 129.985
lfoot 27.1418 -1.46097
ltoes 15.3242
370
root -17.3042 8.46824 -0.0904647 408.329 75.9918 370.256
lowerback 53.8815 -4.69585 -2.61728
upperback 5.65114 -6.6175 -4.09178
thorax -15.137 -2.09409 -0.292744
lowerneck -31.0493 9.29144 6.33506
upperneck 20.9618 15.9266 -18.5712
head 14.7482 4.94351 -5.01485
rclavicle -4.77083e-014 -2.98177e-014
rhumerus 16.7209 19.3568 -72.0821
rradius 63.8111
rwrist -15.591
rhand -32.4167 -47.4882
rfingers 7.12502
rthumb -5.65102 -77.3928
lclavicle -4.77083e-014 -2.98177e-014
lhumerus 0.289497 -7.65397 33.14
lradius 82.0705
lwrist 28.0323
lhand -40.0006 349.703
lfingers 7.12502
lthumb -12.9683 19.2796
rfemur -41.5343 -29.7238 -7.72903
rtibia 113.944
rfoot -22.7408 -16.7758
rtoes 16.4074
lfemur -60.1023 44.4462 -13.647
ltibia 130.001
lfoot 27.4714 -1.53685
ltoes 15.5179
371
root -17.2917 8.47714 -0.0395822 408.315 75.0918 369.916
lowerback 53.113 -4.85928 -2.21626
upperback 5.68948 -6.64294 -4.25818
thorax -15.0619 -2.14671 -0.640593
lowerneck -30.8282 9.60753 6.45085
upperneck 21.4817 16.4079 -18.459
head 15.0032 5.1474 -4.89411
rclavicle 3.81667e-014 1.63003e-014
rhumerus 16.8642 19.9531 -72.6114
rradius 63.6783
rwrist -14.5838
rhand -32.9352 -47.1914
rfingers 7.12502
rthumb -6.15163 -77.0821
lclavicle 3.81667e-014 1.63003e-014
lhumerus -2.27765 -10.7977 34.4048
lradius 82.4299
lwrist 32.35
lhand -38.6169 351.996
lfingers 7.12502
lthumb -11.6342 21.6528
rfemur -42.5358 -29.1439 -7.52743
rtibia 114.142
rfoot -22.8946 -17.1042
rtoes 16.3037
lfemur -59.7704 45.2126 -13.4606
ltibia 129.914
lfoot 27.6001 -1.69276
ltoes 16.1268
372
root -17.2736 8.49035 0.00759597 408.533 74.4928 369.936
lowerback 52.5058 -4.62006 -1.65122
upperback 5.78664 -6.02911 -4.08208
thorax -14.8776 -1.94419 -0.999653
lowerneck -30.9309 9.67355 7.01631
upperneck 22.2296 16.5696 -18.8659
head 15.5052 5.16915 -5.16359
rclavicle 4.77083e-015 5.14852e-014
rhumerus 16.6848 19.3571 -72.5874
rradius 63.7646
rwrist -13.3574
rhand -33.0787 -47.2884
rfingers 7.12502
rthumb -6.29022 -77.175
lclavicle 4.77083e-015 5.14852e-014
lhumerus -3.33782 -13.7855 38.8877
lradius 81.1216
lwrist 33.3359
lhand -36.8468 353.359
lfingers 7.12502
lthumb -9.92683 23.1053
rfemur -43.1213 -28.7246 -7.33433
rtibia 114.188
rfoot -22.9802 -17.4502
rtoes 16.8124
lfemur -59.4464 45.4953 -13.2351
ltibia 129.783
lfoot 27.7169 -1.76038
ltoes 16.884
373
root -17.258 8.50464 0.0583454 408.647 73.8998 369.86
lowerback 51.8888 -4.55916 -1.24326
upperback 5.87984 -5.71611 -3.90203
thorax -14.6838 -1.85553 -1.13719
lowerneck -30.8583 9.96322 7.50464
upperneck 22.589 17.101 -19.5097
head 15.9063 5.34194 -5.41246
rclavicle 6.04305e-014 2.98177e-015
rhumerus 16.7459 19.3976 -72.6785
rradius 63.8147
rwrist -12.1528
rhand -32.7982 -48.4693
rfingers 7.12502
rthumb -6.01939 -78.3638
lclavicle 6.04305e-014 2.98177e-015
lhumerus -4.30125 -16.6001 41.642
lradius 79.6501
lwrist 36.0007
lhand -35.5706 353.963
lfingers 7.12502
lthumb -8.69548 23.7637
rfemur -43.7991 -28.1591 -7.05194
rtibia 114.231
rfoot -22.9255 -17.8994
rtoes 16.9189
lfemur -59.0418 45.9328 -12.8959
ltibia 129.713
lfoot 27.6047 -1.91422
ltoes 17.7147
